# xmcd CD database file
#
# Track frame offsets:
#	150
#	10870
#	19830
#	33475
#	47872
#	57550
#	69450
#	81187
#	94810
#	104800
#	111690
#	122632
#	132712
#	145490
#	156885
#	172235
#
# Disc length: 2460 seconds
#
# Revision: 5
# Processed by: cddbd v1.5.2PL0 Copyright (c) Steve Scherf et al.
# Submitted via: CDex 1.79
#
DISCID=f8099a10
DTITLE=Various Artist - Country Forever
DYEAR=1987
DGENRE=Country
TTITLE0=Dolly Parton - Honky Tonk Angels
TTITLE1=Johnny Cash - Two Timin' Woman
TTITLE2=Freddy Fender - Baby, I Want Your Love
TTITLE3=Billie Joe Spears - I'll never Be Free
TTITLE4=Donna Fargo - Sticks And Stones
TTITLE5=Conway Twitty - You Made Me What I Am
TTITLE6=Dolly Parton - Letter To Heaven
TTITLE7=Willie Nelson - Home Is Where You're Happy
TTITLE8=Don Williams With The Pozo Seco Singers - Take My Hand For A While
TTITLE9=Waylon Jennings - It's So Easy
TTITLE10=Johnny Cash - Oh, Lonesome Me
TTITLE11=Johnny Paycheck - Who Needs Your Love
TTITLE12=Don Williams With The Pozo Seco Singers - Where Do We Go From Here
TTITLE13=Rex Allen Jr. - Dream On Texas Ladies
TTITLE14=Stu Stevens - Let's Go Johnny
TTITLE15=Oak Ridge Boys - You'll Never Walk Alone
EXTD=YEAR: 1987
EXTT0=
EXTT1=
EXTT2=
EXTT3=
EXTT4=
EXTT5=
EXTT6=
EXTT7=
EXTT8=
EXTT9=
EXTT10=
EXTT11=
EXTT12=
EXTT13=
EXTT14=
EXTT15=
PLAYORDER=
